<svg height="464pt" viewBox="0 0 464 464" width="464pt" xmlns="http://www.w3.org/2000/svg"><path d="m200 64h9.472656c3.3125 9.289062 12.113282 16 22.527344 16s19.214844-6.710938 22.527344-16h9.472656c13.230469 0 24-10.769531 24-24s-10.769531-24-24-24h-9.472656c-3.3125-9.289062-12.113282-16-22.527344-16s-19.214844 6.710938-22.527344 16h-9.472656c-13.230469 0-24 10.769531-24 24s10.769531 24 24 24zm24-40c0-4.414062 3.585938-8 8-8s8 3.585938 8 8v8h-16zm0 24h16v8c0 4.414062-3.585938 8-8 8s-8-3.585938-8-8zm0 0"/><path d="m82.703125 134.273438c-8.960937-8.015626-16.773437-15.136719-18.367187-31.847657 6.625-2.472656 11.808593-7.753906 14.183593-14.425781h9.480469c13.230469 0 24-10.769531 24-24s-10.769531-24-24-24h-9.472656c-3.3125-9.289062-12.113282-16-22.527344-16s-19.214844 6.710938-22.527344 16h-9.472656c-13.230469 0-24 10.769531-24 24s10.769531 24 24 24h9.472656c2.464844 6.902344 7.960938 12.304688 14.917969 14.648438 1.929687 23.824218 13.816406 34.75 23.640625 43.535156 9.273438 8.304687 15.96875 14.304687 15.96875 29.816406h16c0-22.664062-11.3125-32.792969-21.296875-41.726562zm-18.703125-54.273438c0 4.414062-3.585938 8-8 8s-8-3.585938-8-8v-8h16zm0-24h-16v-8c0-4.414062 3.585938-8 8-8s8 3.585938 8 8zm0 0"/><path d="m440 64h-9.472656c-3.3125-9.289062-12.113282-16-22.527344-16s-19.214844 6.710938-22.527344 16h-9.472656c-13.230469 0-24 10.769531-24 24s10.769531 24 24 24h9.472656c2.351563 6.609375 7.472656 11.863281 14.007813 14.367188-1.578125 9.878906-7.007813 13.785156-14.6875 19.113281-11.050781 7.6875-24.800781 17.246093-24.800781 46.519531h16c0-20.910156 7.910156-26.414062 17.929687-33.382812 8.8125-6.128907 19.492187-13.695313 21.613281-31.953126 6.984375-2.335937 12.503906-7.742187 14.976563-14.664062h9.488281c13.230469 0 24-10.769531 24-24s-10.769531-24-24-24zm-24 40c0 4.414062-3.585938 8-8 8s-8-3.585938-8-8v-8h16zm0-24h-16v-8c0-4.414062 3.585938-8 8-8s8 3.585938 8 8zm0 0"/><path d="m296 400c4.414062 0 8-3.585938 8-8v-96c0-4.414062-3.585938-8-8-8s-8 3.585938-8 8v96c0 4.414062 3.585938 8 8 8zm0 0"/><path d="m278.609375 164.742188c-5.210937-21.628907-24.378906-36.742188-46.609375-36.742188-19.902344 0-37.449219 12.007812-44.6875 30.59375l-2.871094 7.382812-7.417968-2.816406c-5.535157-2.105468-11.269532-3.167968-17.023438-3.167968-26.472656 0-48 21.527343-48 48h239.28125c-3.824219-22.664063-23.539062-40-47.28125-40-5.089844 0-10.167969.832031-15.097656 2.464843l-8.253906 2.734375zm-118.609375 27.257812h-16v-16h16zm48 0h-16v-16h16zm24-32h-16v-16h16zm24 32h-16v-16h16zm0 0"/><path d="m163.753906 464h136.492188c10.25 0 19.242187-6.625 22.585937-16h-181.664062c3.34375 9.375 12.328125 16 22.585937 16zm0 0"/><path d="m232 400c4.414062 0 8-3.585938 8-8v-96c0-4.414062-3.585938-8-8-8s-8 3.585938-8 8v96c0 4.414062 3.585938 8 8 8zm0 0"/><path d="m360 224h-256c-4.414062 0-8 3.585938-8 8s3.585938 8 8 8h256c4.414062 0 8-3.585938 8-8 0-4.40625-3.585938-8-8-8zm0 0"/><path d="m168 400c4.414062 0 8-3.585938 8-8v-96c0-4.414062-3.585938-8-8-8s-8 3.585938-8 8v96c0 4.414062 3.585938 8 8 8zm0 0"/><path d="m138.375 432h187.257812l25.144532-176h-237.554688zm133.625-136c0-13.230469 10.769531-24 24-24s24 10.769531 24 24v96c0 13.230469-10.769531 24-24 24s-24-10.769531-24-24zm-64 0c0-13.230469 10.769531-24 24-24s24 10.769531 24 24v96c0 13.230469-10.769531 24-24 24s-24-10.769531-24-24zm-64 0c0-13.230469 10.769531-24 24-24s24 10.769531 24 24v96c0 13.230469-10.769531 24-24 24s-24-10.769531-24-24zm0 0"/><path d="m329.710938 77.320312c10.449218-19.792968 22.289062-42.25 22.289062-69.320312h-16c0 23.113281-10.390625 42.816406-20.441406 61.855469-9.613282 18.234375-19.558594 37.082031-19.558594 58.144531h16c0-17.105469 8.601562-33.40625 17.710938-50.679688zm0 0"/><path d="m152 128h16c0-31.351562-9.625-46.945312-18.121094-60.703125-7.4375-12.066406-13.878906-22.488281-13.878906-43.296875h-16c0 25.34375 8.273438 38.742188 16.265625 51.703125 8.09375 13.113281 15.734375 25.496094 15.734375 52.296875zm0 0"/></svg>