<svg height="512" viewBox="0 0 60 61" width="512" xmlns="http://www.w3.org/2000/svg"><g id="018---Drowning"><path id="Shape" d="m59 53c-5.28 0-5.5-4-11.6-4-2.3229583-.035597-4.5858293.7387292-6.4 2.19v-4.7c-.0118619-.5501961.1886924-1.0838139.56-1.49 2.38-2.55 2.72-8.44 2.39-11.9-.2724333-2.6436102.1158517-5.3134988 1.13-7.77l3.68-8.94c.6371381-1.5453188-.070074-3.3171491-1.5961798-3.9990261-1.5261058-.6818771-3.3177828-.0265717-4.0438202 1.4790261l-2.41 5.21 1.16-11.2c.166177-1.53346204-.8239361-2.95461576-2.32-3.33-.8402877-.19083315-1.722075-.02796192-2.438749.45045109-.7166741.47841302-1.2052507 1.23032301-1.351251 2.07954891l-1.08 7.32-.44-10.4c0-1.70103703-1.378963-3.08-3.08-3.08s-3.08 1.37896297-3.08 3.08l-.45 10.4-1.07-7.28c-.2986487-1.61359005-1.8064956-2.71230098-3.4339871-2.5022163-1.6274914.21008468-2.8069065 1.65568074-2.6860129 3.2922163 2.49 19.74 1.79 16 1.79 20.79-.0140303.1215069-.0981958.2234049-.2148652.2601341-.1166694.0367293-.2440289.0014226-.3251348-.0901341l-3.82-5.78c-.606756-.9063644-1.5573187-1.5256486-2.6315652-1.7144441s-2.1790012.0692729-3.0584348.7144441c-1.2475895.9399519-1.5651391 2.6799501-.73 4l5.44 8.62c.2092459.4766063.3441479.9824887.4 1.5.57 2.9 3 7.69 5.58 8.91.6983924.3662603 1.1342513 1.091406 1.13 1.88v2c-5.94.09-6.16 4-11.4 4s-5.6-4-11.6-4c-.55228475 0-1 .4477153-1 1s.44771525 1 1 1c5.2 0 5.57 4 11.6 4s6.33-4 11.6-4 5.5 4 11.59 4 6.34-4 11.61-4 5.47 4 11.6 4c.5522847 0 1-.4477153 1-1s-.4477153-1-1-1zm-33-3.85v-2.15c.0142352-1.5662499-.8672757-3.0030738-2.27-3.7-1.73-.82-4-4.88-4.48-7.51-.41-2.11.16-.77-6.1-10.78-.87-1.39 1.88-2.58 3.06-.82l3.79 5.81c.5635087.8376006 1.609032 1.2073917 2.5738537.9103464.9648216-.2970454 1.6213153-1.1908465 1.6161463-2.2003464 0-4.95.06-1.16-1.81-21-.0326141-.41370258.1725165-.8100345.5291112-1.02229322.3565946-.21225872.8027817-.20361588 1.1508888.02229322.2589553.16617866.4338397.43579214.48.74l2.31 15.67c.1055595.6046731.647153 1.0345091 1.26 1 .6192205-.0145524 1.1237362-.501671 1.16-1.12l.81-18.9c.000667-.28217824.1205206-.55094084.33-.74.2934134-.28894513.7256082-.385886 1.1143239-.24994173.3887156.13594427.6662934.48111163.7156761.88994173l.76 19c.0119977.6284727.5069464 1.1411841 1.1346058 1.1753246s1.1752995-.4218611 1.2553942-1.0453246l2.35-15.71c.0470995-.30230879.2190855-.57090424.4739484-.74017883s.5691349-.22364157.8660516-.14982117c.5292854.13228708.8767966.63853794.81 1.18l-1.68 16c-.0456945.5769886.3269802 1.1043739.8861101 1.2539656.5591298.1495918 1.1453636-.1212434 1.3938899-.6439656l4.44-9.57c.2485282-.5522847.8977152-.7985281 1.45-.5499999.5522847.2485281.7985281.8977152.55 1.4499999l-3.69 8.94c-2 4.84-1.18 8.2-1.18 10.89 0 3.76-.75 6.89-1.95 8.18-.7189627.7662493-1.1163011 1.7792833-1.11 2.83v5.89c-1.0113894.4402016-2.1074264.6518973-3.21.62-4.87 0-5.12-3.1-9.79-3.85z"/><path id="Shape" d="m59 59c-5.28 0-5.5-4-11.6-4s-6.34 4-11.61 4-5.53-4-11.59-4-6.34 4-11.6 4-5.6-4-11.6-4c-.55228475 0-1 .4477153-1 1s.44771525 1 1 1c5.2 0 5.57 4 11.6 4s6.33-4 11.6-4 5.5 4 11.59 4 6.34-4 11.61-4 5.47 4 11.6 4c.5522847 0 1-.4477153 1-1s-.4477153-1-1-1z"/></g></svg>